<svg width="462pt" height="98pt" viewBox="0.00 0.00 462.42 98.00" xmlns="http://www.w3.org/2000/svg" xmlns:xlink="http://www.w3.org/1999/xlink">
<g id="graph0" class="graph" transform="scale(1 1) rotate(0) translate(4 94)">
<polygon fill="#333537" stroke="none" points="-4,4 -4,-94 458.42,-94 458.42,4 -4,4"></polygon>
<!-- academic_coordinator -->
<g id="node1" class="node">
<title>academic_coordinator</title>
<ellipse fill="#0f5223" stroke="#0f5223" cx="108.9" cy="-45" rx="108.9" ry="18"></ellipse>
<text text-anchor="middle" x="108.9" y="-40.8" font-family="Times,serif" font-size="14.00" fill="#cccccc">🤖 academic_coordinator</text>
</g>
<!-- academic_websearch_agent -->
<g id="node2" class="node">
<title>academic_websearch_agent</title>
<path fill="none" stroke="#cccccc" d="M436.99,-90C436.99,-90 271.24,-90 271.24,-90 265.24,-90 259.24,-84 259.24,-78 259.24,-78 259.24,-66 259.24,-66 259.24,-60 265.24,-54 271.24,-54 271.24,-54 436.99,-54 436.99,-54 442.99,-54 448.99,-60 448.99,-66 448.99,-66 448.99,-78 448.99,-78 448.99,-84 442.99,-90 436.99,-90"></path>
<text text-anchor="middle" x="354.11" y="-67.8" font-family="Times,serif" font-size="14.00" fill="#cccccc">🤖 academic_websearch_agent</text>
</g>
<!-- academic_coordinator&#45;&gt;academic_websearch_agent -->
<g id="edge1" class="edge">
<title>academic_coordinator-&gt;academic_websearch_agent</title>
<path fill="none" stroke="#cccccc" d="M200.47,-55.05C219.51,-57.17 239.64,-59.4 258.82,-61.53"></path>
</g>
<!-- academic_newresearch_agent -->
<g id="node3" class="node">
<title>academic_newresearch_agent</title>
<path fill="none" stroke="#cccccc" d="M442.42,-36C442.42,-36 265.81,-36 265.81,-36 259.81,-36 253.81,-30 253.81,-24 253.81,-24 253.81,-12 253.81,-12 253.81,-6 259.81,0 265.81,0 265.81,0 442.42,0 442.42,0 448.42,0 454.42,-6 454.42,-12 454.42,-12 454.42,-24 454.42,-24 454.42,-30 448.42,-36 442.42,-36"></path>
<text text-anchor="middle" x="354.11" y="-13.8" font-family="Times,serif" font-size="14.00" fill="#cccccc">🤖 academic_newresearch_agent</text>
</g>
<!-- academic_coordinator&#45;&gt;academic_newresearch_agent -->
<g id="edge2" class="edge">
<title>academic_coordinator-&gt;academic_newresearch_agent</title>
<path fill="none" stroke="#cccccc" d="M200.47,-34.95C217.75,-33.03 235.94,-31.01 253.49,-29.06"></path>
</g>
</g>
</svg>
